<svg width="164" height="53" viewBox="0 0 164 53" fill="none"
  xmlns="http://www.w3.org/2000/svg">
  <path d="M4.7998 43.9999V8.9999C4.7998 5.07604 7.97595 1.8999 11.8998 1.8999H151.9C155.824 1.8999 159 5.07605 159 8.9999V43.9999C159 47.9238 155.824 51.0999 151.9 51.0999H11.8998C7.97595 51.0999 4.7998 47.9238 4.7998 43.9999Z" fill="#310939" stroke="#F4F3F4"/>
  <path d="M54.7002 21V13H57.6002C60.1002 13 61.8002 14.7 61.8002 17C61.8002 19.3 60.1002 21 57.6002 21H54.7002ZM55.9002 19.9H57.6002C59.4002 19.9 60.5002 18.6 60.5002 17C60.5002 15.4 59.5002 14 57.6002 14H55.9002V19.9ZM65.7002 21.1C63.9002 21.1 62.8002 19.7 62.8002 18.1C62.8002 16.4 63.9002 15.1 65.7002 15.1C67.5002 15.1 68.6002 16.5 68.6002 18.1C68.7002 19.8 67.6002 21.1 65.7002 21.1ZM65.7002 20.2C66.9002 20.2 67.5002 19.2 67.5002 18.1C67.5002 17 66.9002 16 65.7002 16C64.5002 16 63.9002 17 63.9002 18.1C63.9002 19.2 64.6002 20.2 65.7002 20.2ZM75.1002 21L73.7002 16.5L72.3002 21H71.2002L69.4002 15.2H70.5002L71.8002 19.6L73.3002 15.2H74.2002L75.7002 19.6L77.0002 15.2H78.1002L76.3002 21H75.1002ZM82.9002 21V17.3C82.9002 16.3 82.4002 16 81.7002 16C81.0002 16 80.4002 16.4 80.1002 16.8V21H79.0002V15.2H80.1002V16C80.5002 15.5 81.3002 15 82.2002 15C83.4002 15 84.1002 15.6 84.1002 16.9V21H82.9002ZM85.7002 21V13H86.8002V21H85.7002ZM91.0002 21.1C89.2002 21.1 88.1002 19.7 88.1002 18.1C88.1002 16.4 89.2002 15.1 91.0002 15.1C92.8002 15.1 93.9002 16.5 93.9002 18.1C94.0002 19.8 92.9002 21.1 91.0002 21.1ZM91.0002 20.2C92.2002 20.2 92.8002 19.2 92.8002 18.1C92.8002 17 92.2002 16 91.0002 16C89.8002 16 89.2002 17 89.2002 18.1C89.2002 19.2 89.9002 20.2 91.0002 20.2ZM98.9002 21V20.4C98.4002 20.9 97.8002 21.2 97.0002 21.2C96.0002 21.2 95.0002 20.6 95.0002 19.3C95.0002 18 96.0002 17.4 97.0002 17.4C97.8002 17.4 98.5002 17.7 98.9002 18.2V17.2C98.9002 16.5 98.3002 16 97.5002 16C96.8002 16 96.3002 16.3 95.8002 16.8L95.3002 16C95.9002 15.4 96.7002 15.1 97.7002 15.1C99.0002 15.1 100 15.7 100 17.1V21H98.9002ZM98.9002 19.7V18.7C98.6002 18.3 98.0002 18 97.4002 18C96.6002 18 96.1002 18.5 96.1002 19.2C96.1002 19.9 96.7002 20.4 97.4002 20.4C98.0002 20.4 98.6002 20.2 98.9002 19.7ZM105.8 21V20.2C105.4 20.8 104.7 21.2 103.9 21.2C102.4 21.2 101.3 20.1 101.3 18.2C101.3 16.3 102.4 15.2 103.9 15.2C104.6 15.2 105.3 15.6 105.8 16.2V13.2H106.9V21.2H105.8V21ZM105.8 19.3V16.8C105.5 16.3 104.9 15.9 104.2 15.9C103.1 15.9 102.4 16.8 102.4 18C102.4 19.2 103.1 20.1 104.2 20.1C104.9 20.2 105.5 19.8 105.8 19.3ZM114.3 21.1C112.5 21.1 111.4 19.7 111.4 18.1C111.4 16.4 112.5 15.1 114.3 15.1C116.1 15.1 117.2 16.5 117.2 18.1C117.2 19.8 116.1 21.1 114.3 21.1ZM114.3 20.2C115.5 20.2 116.1 19.2 116.1 18.1C116.1 17 115.5 16 114.3 16C113.1 16 112.5 17 112.5 18.1C112.5 19.2 113.2 20.2 114.3 20.2ZM122.5 21V17.3C122.5 16.3 122 16 121.3 16C120.6 16 120 16.4 119.7 16.8V21H118.6V15.2H119.7V16C120.1 15.5 120.9 15 121.8 15C123 15 123.7 15.6 123.7 16.9V21H122.5Z" fill="#F4F3F4"/>
  <path d="M119.7 38H121.6V25.5H119.7V38ZM136.6 30L134.5 35.4H134.3L132.1 30H130.1L133.4 37.6L131.5 41.8H133.4L138.6 30H136.6ZM126 36.5C125.4 36.5 124.5 36.2 124.5 35.4C124.5 34.4 125.6 34.1 126.5 34.1C127.3 34.1 127.7 34.3 128.2 34.5C128 35.7 127.1 36.5 126 36.5ZM126.2 29.7C124.8 29.7 123.4 30.3 122.9 31.6L124.6 32.3C125 31.6 125.6 31.4 126.3 31.4C127.3 31.4 128.2 32 128.3 33V33.1C128 32.9 127.2 32.6 126.4 32.6C124.6 32.6 122.8 33.6 122.8 35.4C122.8 37.1 124.3 38.2 125.9 38.2C127.2 38.2 127.8 37.6 128.3 37H128.4V38H130.2V33.1C130 30.9 128.3 29.7 126.2 29.7ZM114.7 31.5H112V27.2H114.7C116.1 27.2 116.9 28.4 116.9 29.3C116.9 30.3 116.1 31.5 114.7 31.5ZM114.6 25.4H110.1V38H112V33.2H114.6C116.7 33.2 118.7 31.7 118.7 29.3C118.7 26.9 116.7 25.5 114.6 25.4ZM90.2 36.5C88.9 36.5 87.8 35.4 87.8 33.9C87.8 32.4 88.9 31.3 90.2 31.3C91.5 31.3 92.5 32.4 92.5 33.9C92.5 35.5 91.5 36.5 90.2 36.5ZM92.4 30.7C91.9 30.2 91.1 29.7 90.1 29.7C88 29.7 86 31.6 86 34C86 36.4 87.9 38.2 90.1 38.2C91.1 38.2 91.9 37.7 92.3 37.2H92.4V37.8C92.4 39.4 91.5 40.3 90.1 40.3C89 40.3 88.2 39.5 88 38.8L86.4 39.5C86.9 40.6 88.1 42 90.2 42C92.4 42 94.2 40.7 94.2 37.6V30H92.4V30.7ZM95.4 38H97.3V25.5H95.4V38ZM100.1 33.8C100.1 32.2 101.4 31.3 102.3 31.3C103 31.3 103.7 31.7 103.9 32.2L100.1 33.8ZM105.9 32.4C105.5 31.5 104.5 29.7 102.3 29.7C100.1 29.7 98.3 31.4 98.3 34C98.3 36.4 100.1 38.3 102.5 38.3C104.5 38.3 105.6 37.1 106 36.4L104.5 35.4C104 36.1 103.4 36.6 102.4 36.6C101.5 36.6 100.8 36.2 100.3 35.3L106 32.9C106.1 32.9 105.9 32.4 105.9 32.4ZM60.6 31V32.8H64.9C64.8 33.8 64.4 34.6 63.9 35.1C63.3 35.7 62.3 36.4 60.6 36.4C57.9 36.4 55.9 34.3 55.9 31.6C55.9 28.9 58 26.8 60.6 26.8C62 26.8 63.1 27.4 63.9 28.1L65.2 26.8C64.1 25.8 62.7 25 60.7 25C57.1 25 54 28 54 31.6C54 35.2 57.1 38.2 60.7 38.2C62.7 38.2 64.1 37.6 65.3 36.3C66.5 35.1 66.9 33.4 66.9 32.1C66.9 31.7 66.9 31.3 66.8 31H60.6ZM71.6 36.5C70.3 36.5 69.2 35.4 69.2 33.9C69.2 32.4 70.3 31.3 71.6 31.3C72.9 31.3 74 32.3 74 33.9C74 35.5 72.9 36.5 71.6 36.5ZM71.6 29.7C69.2 29.7 67.3 31.5 67.3 34C67.3 36.4 69.2 38.3 71.6 38.3C74 38.3 75.9 36.5 75.9 34C75.9 31.5 74 29.7 71.6 29.7ZM80.9 36.5C79.6 36.5 78.5 35.4 78.5 33.9C78.5 32.4 79.6 31.3 80.9 31.3C82.2 31.3 83.3 32.3 83.3 33.9C83.3 35.5 82.2 36.5 80.9 36.5ZM80.9 29.7C78.5 29.7 76.6 31.5 76.6 34C76.6 36.4 78.5 38.3 80.9 38.3C83.3 38.3 85.2 36.5 85.2 34C85.2 31.5 83.3 29.7 80.9 29.7Z" fill="#F4F3F4"/>
  <path d="M18.9004 37.6V15.7C18.9004 15 19.3004 14.3 20.0004 14L32.6004 26.7L19.9004 39.4C19.3004 39 18.9004 38.3 18.9004 37.6ZM36.6004 30.7L22.8004 38.7L33.7004 27.8L36.6004 30.7ZM40.9004 25.1C41.4004 25.5 41.7004 26 41.7004 26.6C41.7004 27.2 41.4004 27.8 41.0004 28.1L38.1004 29.8L34.9004 26.6L38.1004 23.4L40.9004 25.1ZM22.8004 14.7L36.6004 22.7L33.7004 25.6L22.8004 14.7Z" fill="#F4F3F4"/>
</svg>
