<svg width="164" height="53" viewBox="0 0 164 53" fill="none"
  xmlns="http://www.w3.org/2000/svg">
  <path d="M12.4004 1.7998H151.6C155.724 1.7998 159.1 5.17595 159.1 9.2998V43.4998C159.1 47.6237 155.724 50.9998 151.6 50.9998H12.4004C8.27653 50.9998 4.90039 47.6237 4.90039 43.4998V9.2998C4.90039 5.08002 8.27244 1.7998 12.4004 1.7998Z" fill="#310939" stroke="#F4F3F4"/>
  <path d="M61.4 33.2998L59.3 27.2998L57.1 33.2998H61.4ZM58.4 25.1998H60.5L65.4 38.7998H63.4L62 34.7998H56.6L55.1 38.8998H53.2L58.4 25.1998ZM71.1 37.6998C71.9 37.6998 72.5 37.3998 73 36.6998C73.5 35.9998 73.8 35.0998 73.8 33.7998C73.8 32.9998 73.7 32.2998 73.5 31.7998C73.1 30.6998 72.3 30.1998 71.1 30.1998C69.9 30.1998 69.2 30.7998 68.7 31.8998C68.5 32.4998 68.4 33.2998 68.4 34.2998C68.4 35.0998 68.5 35.6998 68.7 36.2998C69.1 37.1998 69.9 37.6998 71.1 37.6998ZM66.8 28.9998H68.4V30.2998C68.7 29.7998 69.1 29.4998 69.5 29.2998C70.1 28.8998 70.7 28.6998 71.5 28.6998C72.6 28.6998 73.6 29.0998 74.4 29.9998C75.2 30.8998 75.6 32.0998 75.6 33.6998C75.6 35.8998 75 37.3998 73.9 38.2998C73.2 38.8998 72.3 39.1998 71.4 39.1998C70.7 39.1998 70 38.9998 69.5 38.6998C69.2 38.4998 68.9 38.1998 68.5 37.6998V42.7998H66.8V28.9998ZM81.7 37.6998C82.5 37.6998 83.1 37.3998 83.6 36.6998C84.1 35.9998 84.4 35.0998 84.4 33.7998C84.4 32.9998 84.3 32.2998 84.1 31.7998C83.7 30.6998 82.9 30.1998 81.7 30.1998C80.5 30.1998 79.8 30.7998 79.3 31.8998C79.1 32.4998 79 33.2998 79 34.2998C79 35.0998 79.1 35.6998 79.3 36.2998C79.7001 37.1998 80.5 37.6998 81.7 37.6998ZM77.3 28.9998H79V30.2998C79.3 29.7998 79.7 29.4998 80.1 29.2998C80.7 28.8998 81.3 28.6998 82.1 28.6998C83.2 28.6998 84.2 29.0998 85 29.9998C85.8 30.8998 86.2 32.0998 86.2 33.6998C86.2 35.8998 85.6 37.3998 84.5 38.2998C83.8 38.8998 82.9 39.1998 82 39.1998C81.3 39.1998 80.6 38.9998 80.1 38.6998C79.8 38.4998 79.5 38.1998 79.1 37.6998V42.7998H77.4L77.3 28.9998ZM93.1 34.4998C93.1 35.2998 93.3 35.8998 93.6 36.3998C94.2 37.2998 95.3 37.7998 96.8 37.7998C97.5 37.7998 98.1 37.6998 98.7 37.4998C99.8 37.0998 100.4 36.3998 100.4 35.3998C100.4 34.6998 100.2 34.0998 99.7 33.7998C99.2 33.4998 98.5 33.1998 97.5 32.9998L95.7 32.5998C94.5 32.2998 93.6 31.9998 93.1 31.6998C92.2 31.0998 91.8 30.2998 91.8 29.0998C91.8 27.8998 92.2 26.8998 93.1 26.0998C93.9 25.2998 95.1 24.8998 96.7 24.8998C98.1 24.8998 99.3 25.1998 100.3 25.8998C101.3 26.5998 101.8 27.6998 101.8 29.1998H100.1C100 28.4998 99.8 27.8998 99.5 27.4998C98.9 26.7998 98 26.3998 96.6 26.3998C95.5 26.3998 94.7001 26.5998 94.3 27.0998C93.8 27.5998 93.6 28.0998 93.6 28.6998C93.6 29.3998 93.9 29.8998 94.4 30.1998C94.8 30.3998 95.6 30.5998 96.9 30.8998L98.8 31.2998C99.7001 31.4998 100.4 31.7998 100.9 32.1998C101.8 32.7998 102.2 33.7998 102.2 34.9998C102.2 36.4998 101.6 37.5998 100.6 38.1998C99.5 38.8998 98.2001 39.1998 96.8 39.1998C95.1001 39.1998 93.8 38.7998 92.8 37.8998C91.8 36.9998 91.4 35.8998 91.4 34.3998C91.4 34.4998 93.1 34.4998 93.1 34.4998ZM104.7 26.1998H106.4V28.9998H108V30.3998H106.4V36.8998C106.4 37.1998 106.5 37.4998 106.8 37.5998C106.9 37.6998 107.1 37.6998 107.5 37.6998H108.1V38.9998C107.9 39.0998 107.7 39.0998 107.5 39.0998H106.8C106 39.0998 105.5 38.8998 105.2 38.4998C104.9 38.0998 104.8 37.5998 104.8 36.8998V30.2998H103.5V28.8998H104.8C104.7 28.8998 104.7 26.1998 104.7 26.1998ZM113.6 37.7998C114.7 37.7998 115.5 37.3998 115.9 36.4998C116.3 35.6998 116.5 34.6998 116.5 33.6998C116.5 32.7998 116.4 31.9998 116.1 31.3998C115.6 30.4998 114.8 29.9998 113.7 29.9998C112.7 29.9998 111.9 30.3998 111.5 31.1998C111 31.9998 110.8 32.8998 110.8 33.9998C110.8 35.0998 111 35.8998 111.5 36.5998C111.9 37.3998 112.6 37.7998 113.6 37.7998ZM113.7 28.5998C115 28.5998 116.1 28.9998 116.9 29.8998C117.8 30.7998 118.2 31.9998 118.2 33.6998C118.2 35.2998 117.8 36.5998 117 37.6998C116.2 38.6998 115 39.2998 113.4 39.2998C112 39.2998 110.9 38.7998 110.1 37.8998C109.3 36.9998 108.9 35.6998 108.9 34.1998C108.9 32.4998 109.3 31.1998 110.2 30.1998C111.1 29.0998 112.2 28.5998 113.7 28.5998ZM120.3 28.8998H121.9V30.5998C122 30.2998 122.3 29.8998 122.9 29.3998C123.4 28.8998 124 28.6998 124.7 28.6998H125.3V30.4998H124.7C123.9 30.4998 123.2 30.7998 122.8 31.2998C122.4 31.7998 122.1 32.4998 122.1 33.1998V38.8998H120.4L120.3 28.8998ZM130.7 28.6998C131.4 28.6998 132.1 28.8998 132.7 29.1998C133.4 29.4998 133.9 29.9998 134.2 30.4998C134.5 30.9998 134.8 31.5998 134.9 32.2998C135 32.7998 135 33.4998 135 34.4998H127.7C127.7 35.4998 128 36.2998 128.4 36.8998C128.8 37.4998 129.5 37.7998 130.5 37.7998C131.4 37.7998 132.1 37.4998 132.6 36.8998C132.9 36.5998 133.1 36.1998 133.2 35.6998H134.8C134.8 36.0998 134.6 36.4998 134.4 36.8998C134.2 37.2998 133.9 37.6998 133.6 37.9998C133.1 38.4998 132.5 38.7998 131.7 38.9998C131.3 39.0998 130.8 39.1998 130.3 39.0998C129.1 39.0998 128 38.5998 127.2 37.7998C126.3 36.8998 125.9 35.5998 125.9 33.9998C125.9 32.3998 126.3 31.0998 127.2 30.0998C128.2 29.1998 129.3 28.6998 130.7 28.6998ZM133.4 33.0998C133.3 32.3998 133.2 31.7998 132.9 31.3998C132.4 30.5998 131.7 30.1998 130.6 30.1998C129.9 30.1998 129.2 30.4998 128.7 30.9998C128.2 31.5998 127.9 32.2998 127.9 33.0998H133.4ZM37.6 35.7998C36.5 37.3998 35.4 38.9998 33.6 38.9998C31.8 38.9998 31.3 37.9998 29.3 37.9998C27.3 37.9998 26.7 38.9998 25 39.0998C23.3 39.1998 22 37.3998 20.9 35.7998C18.6 32.4998 16.9 26.5998 19.2 22.5998C20.3 20.5998 22.4 19.3998 24.6 19.2998C26.3 19.2998 27.9 20.3998 28.9 20.3998C29.9 20.3998 31.9 18.9998 33.9 19.1998C34.8 19.1998 37.2 19.4998 38.7 21.7998C38.6 21.8998 35.8 23.4998 35.9 26.7998C35.9 30.7998 39.4 32.0998 39.4 32.0998C39.4 32.1998 38.8 33.9998 37.6 35.7998ZM30.1 14.7998C31 13.6998 32.6 12.8998 34 12.7998C34.2 14.2998 33.5 15.8998 32.6 16.9998C31.7 18.0998 30.2 18.9998 28.7 18.8998C28.5 17.3998 29.2 15.7998 30.1 14.7998ZM54.9 20.8998V12.8998H57.8C60.3 12.8998 62 14.5998 62 16.8998C62 19.1998 60.3 20.8998 57.8 20.8998H54.9ZM56.1 19.7998H57.8C59.6 19.7998 60.7 18.4998 60.7 16.8998C60.7 15.2998 59.7 13.8998 57.8 13.8998H56.1V19.7998ZM65.9 20.9998C64.1 20.9998 63 19.5998 63 17.9998C63 16.2998 64.1 14.9998 65.9 14.9998C67.7 14.9998 68.8 16.3998 68.8 17.9998C68.8 19.5998 67.7 20.9998 65.9 20.9998ZM65.9 20.0998C67.1 20.0998 67.7 19.0998 67.7 17.9998C67.7 16.8998 67.1 15.8998 65.9 15.8998C64.7 15.8998 64.1 16.8998 64.1 17.9998C64.1 19.0998 64.7 20.0998 65.9 20.0998ZM75.2 20.8998L73.8 16.3998L72.4 20.8998H71.3L69.5 15.0998H70.6L71.9 19.4998L73.4 15.0998H74.3L75.8 19.4998L77.1 15.0998H78.2L76.4 20.8998H75.2ZM83 20.8998V17.1998C83 16.1998 82.5 15.8998 81.8 15.8998C81.1 15.8998 80.5 16.2998 80.2 16.6998V20.7998H79.1V14.9998H80.2V15.7998C80.6 15.2998 81.4 14.7998 82.3 14.7998C83.5 14.7998 84.2 15.3998 84.2 16.6998V20.7998C84.1 20.8998 83 20.8998 83 20.8998ZM85.8 20.8998V12.8998H86.9V20.8998H85.8ZM91.2 20.9998C89.4 20.9998 88.3 19.5998 88.3 17.9998C88.3 16.2998 89.4 14.9998 91.2 14.9998C93 14.9998 94.1 16.3998 94.1 17.9998C94.1 19.5998 93 20.9998 91.2 20.9998ZM91.2 20.0998C92.4 20.0998 93 19.0998 93 17.9998C93 16.8998 92.4 15.8998 91.2 15.8998C90 15.8998 89.4 16.8998 89.4 17.9998C89.4 19.0998 90 20.0998 91.2 20.0998ZM99.1 20.8998V20.2998C98.6 20.7998 98 21.0998 97.2 21.0998C96.2 21.0998 95.2 20.4998 95.2 19.1998C95.2 17.8998 96.2 17.2998 97.2 17.2998C98 17.2998 98.7 17.5998 99.1 18.0998V17.0998C99.1 16.3998 98.5 15.8998 97.7 15.8998C97 15.8998 96.5 16.1998 96 16.6998L95.5 15.9998C96.1 15.3998 96.9 15.0998 97.9 15.0998C99.2001 15.0998 100.2 15.6998 100.2 17.0998V20.9998L99.1 20.8998ZM99.1 19.5998V18.5998C98.8 18.1998 98.2 17.8998 97.6 17.8998C96.8 17.8998 96.3 18.3998 96.3 19.0998C96.3 19.7998 96.9 20.2998 97.6 20.2998C98.2 20.2998 98.7 19.9998 99.1 19.5998ZM106 20.8998V20.0998C105.6 20.6998 104.9 21.0998 104.1 21.0998C102.6 21.0998 101.5 19.9998 101.5 18.0998C101.5 16.1998 102.6 15.0998 104.1 15.0998C104.8 15.0998 105.5 15.4998 106 16.0998V13.0998H107.1V21.0998H106V20.8998ZM106 19.1998V16.6998C105.7 16.1998 105.1 15.7998 104.4 15.7998C103.3 15.7998 102.6 16.6998 102.6 17.8998C102.6 19.0998 103.3 19.9998 104.4 19.9998C105 20.0998 105.7 19.6998 106 19.1998ZM114.5 20.9998C112.7 20.9998 111.6 19.5998 111.6 17.9998C111.6 16.2998 112.7 14.9998 114.5 14.9998C116.3 14.9998 117.4 16.3998 117.4 17.9998C117.4 19.5998 116.3 20.9998 114.5 20.9998ZM114.5 20.0998C115.7 20.0998 116.3 19.0998 116.3 17.9998C116.3 16.8998 115.7 15.8998 114.5 15.8998C113.3 15.8998 112.7 16.8998 112.7 17.9998C112.7 19.0998 113.3 20.0998 114.5 20.0998ZM122.7 20.8998V17.1998C122.7 16.1998 122.2 15.8998 121.5 15.8998C120.8 15.8998 120.2 16.2998 119.9 16.6998V20.7998H118.8V14.9998H119.9V15.7998C120.3 15.2998 121.1 14.7998 122 14.7998C123.2 14.7998 123.9 15.3998 123.9 16.6998V20.7998H122.7V20.8998Z" fill="#F4F3F4"/>
</svg>
