<svg width="60" height="56" viewBox="0 0 60 56" fill="none"
  xmlns="http://www.w3.org/2000/svg">
  <path fill-rule="evenodd" clip-rule="evenodd" d="M33.7368 38.9047C35.7728 39.6138 37.9505 40.0174 40.2278 40.0174C51.1478 40.0174 60.0005 31.1565 60.0005 20.2256C60.0005 9.29467 51.1478 0.43103 40.2278 0.43103C30.565 0.43103 22.5346 7.37467 20.8096 16.5438C28.5373 19.2369 34.0914 26.5733 34.0914 35.2256C34.0914 36.4842 33.9618 37.7115 33.7368 38.9047ZM34.9273 9.44712C36.3329 8.03869 38.2406 7.24656 40.2305 7.24512L40.2277 7.24648C42.2185 7.2472 44.1274 8.03911 45.5341 9.44784C46.9408 10.8566 47.7299 12.7666 47.7277 14.7574C47.73 18.9005 44.3736 22.2612 40.2305 22.2642C36.0905 22.2642 32.7359 18.9001 32.7359 14.7547C32.7334 12.7648 33.5217 10.8555 34.9273 9.44712Z" fill="#F01015" fill-opacity="0.15"/>
  <path fill-rule="evenodd" clip-rule="evenodd" d="M33.7365 38.8965C33.9615 37.706 34.0911 36.4828 34.0911 35.2256C34.0911 31.9392 33.2783 28.8478 31.8643 26.1206C32.8737 25.4151 33.9748 24.8508 35.137 24.4433C36.7006 25.2681 38.4419 25.6988 40.2097 25.6978C41.9812 25.7003 43.7264 25.2696 45.2933 24.4433C49.5411 25.9188 53.0074 29.3347 53.6933 34.6869C50.1615 37.9842 45.4379 40.016 40.2274 40.016C37.9502 40.0174 35.7724 39.6083 33.7365 38.8965Z" fill="#F01015"/>
  <path fill-rule="evenodd" clip-rule="evenodd" d="M14.3186 55.0174C9.10132 55.0174 4.36951 52.9801 0.834961 49.6746C1.52632 44.3346 4.98587 40.9242 9.22678 39.4474C10.7912 40.2726 12.5335 40.7033 14.3022 40.7019C16.0735 40.7033 17.8182 40.2717 19.3845 39.4446C23.6322 40.9215 27.0986 44.3374 27.7845 49.6896C24.2527 52.9869 19.5291 55.0187 14.3186 55.0187V55.0174Z" fill="#F01015" fill-opacity="0.15"/>
  <path fill-rule="evenodd" clip-rule="evenodd" d="M21.819 29.7547C21.8212 33.8982 18.4653 37.2597 14.3217 37.2642C10.1797 37.2597 6.82489 33.8995 6.82715 29.7574C6.82462 27.7676 7.61293 25.8583 9.01855 24.4499C10.4242 23.0414 12.3319 22.2493 14.3217 22.2479C18.4648 22.2509 21.8212 25.6116 21.819 29.7547Z" fill="#F01015"/>
</svg>
